<svg xmlns="http://www.w3.org/2000/svg" width="247" height="300" viewBox="0 0 247 300">
  <g fill="none" fill-rule="evenodd">
    <g fill-rule="nonzero" transform="translate(5 20)">
      <path fill="#FFCFAB" d="M105.6,164.4 L105.6,175.3 C105.8,175.3 106.1,175.4 106.3,175.5 C106.3,172.1 106.8,164.1 110.1,160.8 C111.2,159.7 112.5,159.1 114,159.1 C116.9,159.1 118.8,160.5 119.9,161.9 C120.8,161.8 121.7,161.7 122.7,161.7 C121.5,159.1 119.1,155.7 114.3,155.7 C106.9,155.6 105.7,163.5 105.6,164.4 Z"/>
      <path fill="#FFF" d="M153.3,173.6 C153.3,173.6 153.3,173.6 153.3,173.6 C150,173.6 149.1,176.8 148.9,178.2 L157.6,178.2 C157.4,176.8 156.6,173.6 153.3,173.6 Z"/>
      <path fill="#49B260" d="M105.2,190.8 C104.6,190.9 104,190.9 103.4,190.9 C102.7,190.9 102,190.8 101.3,190.7 C101.2,190.7 101.1,190.6 101,190.6 L100.9,191.2 L99.5,197.1 L101.6,197.1 L105.1,197.1 L107.6,197.1 L106.6,192.1 L106.3,190.5 C105.8,190.7 105.5,190.8 105.2,190.8 Z"/>
      <path fill="#FFE576" d="M87.2,213.4 L94.8,222.4 L102.3,214 L94.4,205.2 C92.4,207.6 90,210.3 87.2,213.4 Z"/>
      <polygon fill="#49B260" points="97.4 201.8 97.4 201.8 105.4 210.6 111.2 204.1 109.1 201.8 97.5 201.8"/>
      <path fill="#FFCFAB" d="M129 162.7C129.7 163 130.4 163.4 131.1 163.8 131.4 162.9 131.9 162 132.7 161.2 134 159.8 135.9 159.1 138 159.1 140.1 159.1 142 159.8 143.3 161.2 144.1 162 144.6 162.9 144.9 163.8 145.6 163.4 146.3 163 147 162.7 146.1 160.1 143.7 155.6 138.1 155.6 132.7 155.6 130.1 160.1 129 162.7zM153.2 166.1C149.9 166.1 147.3 167.1 145.5 168.9 142.5 171.9 142.1 176.6 142 178.2L144.3 178.2C144.7 174.8 146.9 169.1 153.2 169.1 153.2 169.1 153.2 169.1 153.2 169.1 159.6 169.1 161.6 174.8 161.9 178.2L164.2 178.2C164.2 176.7 163.9 172.1 161 169 159.3 167.1 156.6 166.1 153.2 166.1z"/>
      <path fill="#FFF" d="M153.8,149.7 C153.2,149.1 152.4,148.8 151.4,148.8 C150.2,148.8 149.3,149.2 148.6,149.9 C147.4,151.1 147,153.2 146.9,154.5 C148,155.5 148.9,156.6 149.6,157.8 C150.8,155.8 152.6,153.8 155.1,152.5 C154.9,151.5 154.5,150.4 153.8,149.7 Z"/>
      <path fill="#FFCFAB" d="M123.6 141.7C120.3 141.7 117.7 142.7 115.9 144.6 114 146.6 113.2 149.2 112.8 151.3 113.3 151.3 113.7 151.2 114.2 151.2 114.6 151.2 114.9 151.2 115.2 151.3 116.2 148.2 118.7 144.7 123.6 144.7 125.8 144.7 127.7 145.5 129.2 147 130.8 148.6 131.6 150.8 132 152.7 132.8 152.3 133.7 151.9 134.6 151.7 134.3 149.6 133.6 146.8 131.6 144.7 129.7 142.6 127 141.7 123.6 141.7zM143.7 144.2C141.6 146.3 140.8 149.2 140.5 151.3 141.3 151.4 142.1 151.7 142.8 151.9 143.2 150.2 143.9 148.3 145.4 146.7 146.9 145.1 149 144.2 151.5 144.2 153.7 144.2 155.6 145 157.1 146.5 157.4 146.8 157.7 147.2 158 147.6 158 147.4 158.1 147.3 158.1 147.1 158.1 147.1 158.1 147.1 158.1 147.1 158.3 146 158.6 144.9 159 143.7 157.2 142 154.7 141.2 151.5 141.2 148.1 141.3 145.5 142.3 143.7 144.2zM157.8 156.3C157.7 156.3 157.7 156.4 157.6 156.4 154.9 157.6 153.5 159.9 152.8 161.7 153 161.7 153.1 161.7 153.2 161.7 155.5 161.7 157.6 162.1 159.4 162.8 158.7 160.9 158.1 158.8 157.7 156.5 157.8 156.4 157.8 156.3 157.8 156.3z"/>
      <path fill="#FFE576" d="M98,183 C98,183.3 98.1,183.6 98.3,183.9 C99,185.3 101.1,186.4 103.4,186.4 C106,186.4 108.3,185.1 108.7,183.5 C108.7,183.3 108.8,183.1 108.8,183 C108.8,181.2 106.3,179.5 103.4,179.5 C100.5,179.6 98,181.2 98,183 Z"/>
      <polygon fill="#0BAA8F" points="138.1 251.5 134.4 258.7 141.6 258.7"/>
      <path fill="#49B260" d="M125.1,251.8 C127.2,249.3 128.6,246.8 129.6,244.5 L125,239.3 L117,248.6 L119.7,251.8 L125.1,251.8 Z"/>
      <path fill="#EF7D50" d="M146.8,210 C144.9,210 143.4,211.5 143.4,213.4 L143.4,234.4 L150.1,234.4 L150.1,213.4 C150.2,211.5 148.7,210 146.8,210 Z"/>
      <path fill="#F9A17A" d="M164.5,211.5 C164.8,210.5 165.7,209.8 166.7,209.8 L170,209.8 L170,201.7 L115.2,201.7 L119.4,206.3 C119.7,206.2 119.9,206 120.1,206 C121,205.5 121.5,205.5 122.7,205.5 L123.6,205.5 C127.9,205.5 131.5,209 131.5,213.4 L131.6,220.6 C133.6,223.9 135.6,228.7 136,234.4 L139.1,234.4 L139.1,213.4 C139.1,209.1 142.6,205.5 147,205.5 C151.3,205.5 154.9,209 154.9,213.4 L154.9,234.4 L158.6,234.4 L158.6,234.2 C158.6,234.1 158.6,233.9 158.6,233.8 L158.5,233.8 C158.5,233.5 158.4,227.1 162,222.2 L164.5,211.5 Z"/>
      <path fill="#FFE576" d="M101.4,237.1 L94.8,229.3 L87.7,237.3 C89.6,239.6 91.8,242.3 94.3,245.4 L101.4,237.1 Z"/>
      <path fill="#49B260" d="M83.2 218.2C80.9 220.9 79.3 223.5 78.2 226 79.5 227.4 81.5 229.8 84.8 233.8L91.9 225.9 84.3 217C83.9 217.3 83.6 217.7 83.2 218.2zM88.8 251.8L91.3 248.9C89.3 246.5 87 243.6 84.7 240.8L79.2 246.9C80.4 249.2 81.7 250.9 82.5 251.8L88.8 251.8z"/>
      <polygon fill="#FFE576" points="122 235.9 115.1 228.2 107.3 237.2 114 245.1"/>
      <path fill="#49B260" d="M108.2,251.8 L111,248.5 L104.3,240.6 L97.1,248.9 C97.9,249.8 98.6,250.8 99.4,251.8 L108.2,251.8 Z"/>
      <polygon fill="#F9A17A" points="147.7 248.7 141.8 248.7 144.7 254.8"/>
      <path fill="#FFF" d="M159.4,238.9 L152.5,238.9 L141.3,238.9 L135.8,238.9 C135.6,240.6 135.2,242.4 134.6,244.2 L136.5,244.2 L136.5,244.3 L138.2,244.3 C138.3,244.3 138.3,244.2 138.4,244.2 L160.7,244.2 L159.4,238.9 Z"/>
      <path fill="#FF5C5C" d="M168.9,135.6 C167,137.9 165.5,140.1 164.4,142.2 L169,138.6 C169.8,138 170.9,138 171.7,138.6 L180.4,145.3 L188.1,138.7 C189,138 190.3,138 191.1,138.8 L198.8,145.9 L206.3,138.8 C207.1,138 208.5,138 209.3,138.7 L215.1,143.8 C213.2,139.2 210.4,136.2 210.1,136 L204.5,129.9 L200.3,133.9 C199.9,134.3 199.3,134.5 198.7,134.5 C198.2,134.5 197.6,134.3 197.2,133.9 L189.4,126.7 L181.8,133.2 C181,133.9 179.8,133.9 179,133.3 L174,129.4 C172.5,131.4 170.8,133.4 168.9,135.6 Z"/>
      <polygon fill="#F9A17A" points="160.5 248.7 154.9 248.7 157.9 254.7"/>
      <path fill="#F9A17A" d="M185.2,220.8 C187.7,223.4 188.8,226.8 189.3,229.4 C189.8,226.7 191,223.4 193.6,220.7 C196.3,217.9 200,216.5 204.6,216.5 C206.6,216.5 208.3,216.8 209.9,217.3 L208.7,214.4 L205.7,214.4 L195,214.4 L183,214.4 L172.3,214.4 L168.5,214.4 L167.7,217.6 C169.6,216.8 171.7,216.4 174,216.4 C178.7,216.4 182.4,217.9 185.2,220.8 Z"/>
      <path fill="#49B260" d="M124.9,232.4 L129.7,226.9 C127.7,222 124.8,218.9 124.5,218.6 L123.9,218 L118,224.8 L124.9,232.4 Z"/>
      <polygon fill="#0BAA8F" points="154.8 258.7 151.3 251.5 147.8 258.7"/>
      <path fill="#FFE576" d="M146.2,31.7 C148.6,28.7 149.7,25.7 149.5,22.7 C149.1,17.9 145.2,14.7 145.2,14.7 L140.8,10.3 C139.9,10.5 139,10.7 138.1,10.7 C137.1,10.7 136.2,10.5 135.3,10.3 L130.4,15.1 C127.5,17.8 126.1,20.7 126.1,23.6 C126.1,27.4 128.6,30.5 129.7,31.8 L146.2,31.8 L146.2,31.7 Z"/>
      <path fill="#FFED92" d="M138,6.2 C139.6,6.2 140.9,5.7 141.7,5 C142.3,4.5 142.6,3.9 142.6,3.4 C142.6,2 140.7,0.5 138,0.5 C135.3,0.5 133.4,2 133.4,3.4 C133.4,4 133.7,4.5 134.3,5 C135.1,5.6 136.4,6.2 138,6.2 Z"/>
      <path fill="#FFF" d="M177.1,126.1 L180.5,128.7 L188.2,122.1 C189.1,121.4 190.4,121.4 191.2,122.2 L198.9,129.3 L201.6,126.7 L194.8,119.2 L183.2,119.2 C181.5,121.1 179.5,123.4 177.1,126.1 Z"/>
      <path fill="#FFED92" d="M194.4,101 C194.4,100.8 194.5,100.6 194.5,100.5 C194.5,98.7 192,97 189.1,97 C186.2,97 183.7,98.6 183.7,100.5 C183.7,100.8 183.8,101.1 184,101.5 C184.7,102.9 186.8,104 189.1,104 C191.7,103.9 194,102.6 194.4,101 Z"/>
      <path fill="#FF7676" d="M190.9,108.3 C190.3,108.4 189.7,108.4 189.1,108.4 C188.4,108.4 187.7,108.3 187,108.2 C186.9,108.2 186.8,108.1 186.7,108.1 L186.6,108.7 L185.2,114.6 L187.3,114.6 L190.8,114.6 L193.3,114.6 L192.3,109.6 L192,108 C191.6,108.1 191.2,108.2 190.9,108.3 Z"/>
      <path fill="#FFF" d="M113.3,163.9 C113,164.2 112.7,164.7 112.5,165.3 C113.2,164.7 113.9,164.2 114.7,163.7 C114.5,163.7 114.3,163.6 114,163.6 C113.9,163.5 113.6,163.5 113.3,163.9 Z"/>
      <path fill="#F9A17A" d="M111.5,178.5 C111.5,178.4 111.5,178.3 111.5,178.3 L111.2,178.3 C111.3,178.3 111.4,178.4 111.5,178.5 Z"/>
      <path fill="#FFF" d="M140,164.3 C139.7,164 139.2,163.6 138,163.6 C136.8,163.6 136.3,164 136,164.3 C135.3,165.1 135,166.4 134.9,167.3 C136.7,169.7 137.6,172.4 138,174.7 C138.4,172.5 139.3,169.7 141.2,167.3 C141.1,166.4 140.8,165.1 140,164.3 Z"/>
      <path fill="#EF7D50" d="M126.9,213.4 C126.9,211.5 125.4,210 123.5,210 L122.7,210 L126.8,214.5 L126.9,213.4 Z"/>
      <path fill="#FFF" d="M127.9 155.9C127.8 154.3 127.4 151.5 126 150.1 125.4 149.5 124.6 149.2 123.6 149.2 121.2 149.2 120.1 150.9 119.6 152.3 122.6 153.7 124.7 156.1 126.1 158.5 126.6 157.6 127.2 156.7 127.9 155.9zM122.7 173.6C119.4 173.6 118.5 176.8 118.3 178.2L127 178.2C126.7 176.8 125.9 173.6 122.7 173.6 122.7 173.6 122.7 173.6 122.7 173.6z"/>
      <path fill="#FFCFAB" d="M113.7,178.3 C114.1,174.9 116.3,169.2 122.6,169.2 C122.6,169.2 122.6,169.2 122.6,169.2 C129,169.2 131,174.9 131.3,178.3 L133.7,178.3 C133.7,176.8 133.4,172.2 130.5,169.1 C128.6,167.2 126,166.2 122.6,166.2 C119.3,166.2 116.7,167.2 114.9,169.1 C112,172.1 111.5,176.8 111.5,178.3 L113.7,178.3 Z"/>
      <path fill="#FFE576" d="M131.1,232.1 L127.9,235.8 L131.1,239.3 C131.5,236.8 131.5,234.4 131.1,232.1 Z"/>
      <polygon fill="#FFE576" points="108.4 214 115 221.4 120.9 214.6 114.3 207.4"/>
      <path fill="#EF7D50" d="M170,184.5 L170,183.9 L170,183.4 L170,182.7 L169.5,182.7 L113.2,182.7 C113.2,182.8 113.2,182.9 113.2,183 C113.2,185.2 112.1,187.2 110.3,188.6 L112,197.2 L170,197.2 L170,184.5 Z M119.1,192.5 L114.6,192.5 L114.6,187.2 L119.1,187.2 L119.1,192.5 Z M128.6,192.5 L124.1,192.5 L124.1,187.2 L128.6,187.2 L128.6,192.5 Z M138.1,192.5 L133.6,192.5 L133.6,187.2 L138.1,187.2 L138.1,192.5 Z M147.6,192.5 L143.1,192.5 L143.1,187.2 L147.6,187.2 L147.6,192.5 Z M157.1,192.5 L152.6,192.5 L152.6,187.2 L157.1,187.2 L157.1,192.5 Z M166.6,192.5 L162.1,192.5 L162.1,187.2 L166.6,187.2 L166.6,192.5 Z"/>
      <polygon fill="#49B260" points="97.8 225.9 104.4 233.7 112.1 224.8 105.4 217.4"/>
      <path fill="#FFE576" d="M77.3,242.2 L81.8,237.2 C79.8,234.8 78,232.6 76.7,230.9 C75.8,235.1 76.3,239 77.3,242.2 Z"/>
      <path fill="#FFCFAB" d="M62.9,223.8 C61,221.9 58.4,220.9 55,220.9 C51.7,220.9 49.1,221.9 47.3,223.8 C45.1,226.1 44.3,229.3 44,231.4 L46.5,231.4 C47.3,228.1 49.7,223.9 55.1,223.9 C55.1,223.9 55.1,223.9 55.1,223.9 C60.5,223.9 62.8,228 63.6,231.4 L66,231.4 C65.8,229.3 65.1,226.1 62.9,223.8 Z"/>
      <path d="M79.8,215.3 C86.2,207.8 91.1,202.3 94.6,198.3 L96.8,189 C94.8,187.5 93.5,185.5 93.5,183.1 C93.5,179.3 96.8,176.2 101.1,175.4 L101.1,164.1 C101.2,163.6 101.2,163 101.4,162.4 C102,159.5 103.7,155.8 107,153.4 L107,128.5 C107,128.5 107,128.5 107,128.5 C107,128.5 107,128.5 107,128.5 L107,128.5 C107,128.3 107,128 107.1,127.8 L127,69.2 C126.7,68.8 126.5,68.4 126.5,67.9 L126.5,52.9 L126.5,40.1 C123.6,39.9 120.7,39.7 117.7,39.7 C53.2,39.7 0.7,92.2 0.7,156.7 C0.7,176.8 5.8,195.7 14.7,212.2 L14.9,211.5 C15.2,210.5 16.1,209.8 17.1,209.8 L20.4,209.8 L20.4,183.8 L15.7,172.6 C13.4,170 -0.7,152.1 15.9,132.6 C22.3,125.1 27.2,119.6 30.7,115.6 L32.9,106.2 C30.9,104.7 29.6,102.7 29.6,100.3 C29.6,96.5 32.8,93.4 37.2,92.6 L37.2,79.6 C37.2,78.4 38.2,77.4 39.4,77.4 C40.6,77.4 41.6,78.4 41.6,79.6 L41.6,92.6 C46,93.4 49.2,96.6 49.2,100.3 C49.2,102.5 48.1,104.5 46.3,105.9 L48.2,115.9 L64,132.9 C64.1,133 81.9,151.9 64.2,172.6 L58.4,183.9 L58.4,209.8 L60.7,209.8 C61.6,209.8 62.5,210.4 62.8,211.2 L66.9,221.6 C70.9,226.6 70.7,233.4 70.6,233.7 L70.6,233.7 C70.6,233.8 70.6,234 70.6,234.1 L65.6,254.1 L65.6,261.3 C71.6,264.3 77.8,266.8 84.3,268.7 L84.3,266.4 L79.6,255.2 C77.3,252.6 63.1,234.7 79.8,215.3 Z"/>
      <path fill="#EF7D50" d="M35.7,197.6 L35.7,209.8 L43.2,209.8 L43.2,197.6 C43.2,195.5 41.5,193.9 39.5,193.9 C37.5,193.9 35.7,195.5 35.7,197.6 Z"/>
      <polygon fill="#F9A17A" points="84.9 256.3 88 263.8 118.6 263.8 122.5 256.3"/>
      <path fill="#FFF" d="M88.8 270C92.7 271 96.6 271.8 100.6 272.4 102.9 272.7 105.3 273 107.6 273.2 110.9 273.5 114.3 273.7 117.7 273.7L117.7 268.3 88.8 268.3 88.8 270 88.8 270zM55.1 228.4C55.1 228.4 55.1 228.4 55.1 228.4 52.8 228.4 51.7 229.9 51.1 231.4L58.9 231.4C58.4 229.9 57.4 228.4 55.1 228.4z"/>
      <path fill="#F9A17A" d="M18.1,217.5 C20,216.7 22.1,216.3 24.4,216.3 C29.1,216.3 32.9,217.8 35.6,220.7 C38.1,223.3 39.2,226.7 39.7,229.3 C40.2,226.6 41.4,223.3 44,220.6 C46.7,217.8 50.4,216.4 55,216.4 C57,216.4 58.7,216.7 60.3,217.2 L59.1,214.3 L56.1,214.3 L45.4,214.3 L33.4,214.3 L22.7,214.3 L18.9,214.3 L18.1,217.5 Z"/>
      <path fill="#FFF" d="M61.1,259 L61.1,256.1 L56.2,256.1 C57.8,257.1 59.4,258.1 61.1,259 Z"/>
      <path fill="#F9A17A" d="M49.5,251.6 L61.6,251.6 L65.5,235.9 L31.7,235.9 C37.1,241.7 43.1,246.9 49.5,251.6 Z"/>
      <path fill="#FFCFAB" d="M35.5,231.4 C35.3,229.3 34.5,226.1 32.4,223.9 C30.5,222 27.9,221 24.5,221 C23,221 21.7,221.2 20.5,221.6 C21.1,222.5 21.7,223.4 22.3,224.2 C23,224 23.7,223.9 24.4,223.9 C24.4,223.9 24.4,223.9 24.4,223.9 C29.8,223.9 32.1,228 32.9,231.4 L35.5,231.4 L35.5,231.4 Z"/>
      <path fill="#F9A17A" d="M122.2,266.6 L122.2,273.6 C136.5,273.1 150.2,270 162.8,264.7 L162.8,263.2 L123.9,263.2 L122.2,266.6 Z"/>
      <path fill="#FFCFAB" d="M204.5,220.9 C201.2,220.9 198.6,221.9 196.8,223.8 C194.6,226.1 193.8,229.3 193.5,231.4 L196,231.4 C196.8,228.1 199.2,223.9 204.6,223.9 C204.6,223.9 204.6,223.9 204.6,223.9 C207.7,223.9 209.8,225.3 211.1,227.1 C211.7,226.3 212.3,225.4 212.9,224.6 C212.7,224.4 212.6,224.1 212.4,223.9 C210.6,221.9 207.9,220.9 204.5,220.9 Z"/>
      <path fill="#FFF" d="M204.6,228.4 C204.6,228.4 204.6,228.4 204.6,228.4 C202.3,228.4 201.2,229.9 200.6,231.4 L207.7,231.4 L208.4,231.4 C208.3,231.2 208.2,231.1 208.2,230.9 C207.6,229.6 206.6,228.4 204.6,228.4 Z"/>
      <path d="M149.6,44.1 L149.6,52.9 L149.6,67.9 C149.6,68.3 149.5,68.6 149.3,68.9 L160.6,102 C160.6,102 160.6,102 160.6,102 L169.3,127.6 C169.3,127.7 169.3,127.8 169.3,128 C169.3,128 169.3,128.1 169.3,128.1 C169.3,128.1 169.3,128.1 169.3,128.1 C173.8,122.9 177.4,118.8 180.2,115.7 L182.4,106.4 C180.4,104.9 179.1,102.9 179.1,100.5 C179.1,96.7 182.4,93.6 186.7,92.8 L186.7,79.8 C186.7,78.6 187.7,77.6 188.9,77.6 C190.1,77.6 191.1,78.6 191.1,79.8 L191.1,92.8 C195.5,93.6 198.7,96.8 198.7,100.5 C198.7,102.7 197.6,104.7 195.8,106.2 L197.7,116.1 L213.2,133 C213.3,133.1 231.1,152 213.4,172.7 L207.6,184 L207.6,209.9 L209.9,209.9 C210.8,209.9 211.7,210.5 212,211.3 L215.6,220.4 C227.5,202.1 234.5,180.2 234.5,156.8 C234.8,103.2 198.7,58 149.6,44.1 Z"/>
      <path fill="#F9A17A" d="M165.9,247.3 L165.9,247.5 L166.8,251.7 L186,251.7 C192.4,247.1 198.4,241.8 203.8,236 L163.3,236 L165.9,247.3 Z"/>
      <path fill="#FFF" d="M174 228.4C171.7 228.4 170.6 229.9 170 231.4L177.8 231.4C177.3 230 176.2 228.4 174 228.4 174 228.4 174 228.4 174 228.4zM167.3 262.7C171.4 260.8 175.5 258.6 179.3 256.2L167.3 256.2 167.3 262.7z"/>
      <path fill="#FFCFAB" d="M173.9,223.9 C173.9,223.9 174,223.9 173.9,223.9 C179.3,223.9 181.6,228 182.4,231.4 L185,231.4 C184.8,229.3 184,226.1 181.9,223.9 C180,222 177.4,221 173.9,221 C170.6,221 168,222 166.2,223.8 C164,226.1 163.2,229.3 162.9,231.4 L165.3,231.4 C166.1,228.1 168.5,223.9 173.9,223.9 Z"/>
      <polygon fill="#F9A17A" points="162.8 254.1 162.8 254.6 162.9 254.4 162.9 254.4"/>
      <polygon fill="#0BAA8F" points="162.8 258.7 162.8 254.6 161 258.7"/>
      <path fill="#F9A17A" d="M127.1,130.6 L111.5,130.6 L111.5,142.7 C111.9,142.2 112.2,141.7 112.7,141.3 C115.4,138.5 119.1,137.1 123.7,137.1 C128.4,137.1 132.2,138.6 134.9,141.5 C136.1,142.7 136.9,144.1 137.6,145.5 C138.3,144 139.2,142.4 140.5,141 C143.2,138.2 146.9,136.8 151.5,136.8 C155.2,136.8 158.3,137.8 160.8,139.6 C161.9,137.5 163.2,135.5 165,133.3 L165,130.6 L148.4,130.6 L127.1,130.6 L127.1,130.6 Z"/>
      <polygon fill="#0BAA8F" points="144.7 126.1 137.8 111.4 130.7 126.1"/>
      <path fill="#0BAA8F" d="M60.7,136 L53.8,128.4 C58.1,138.1 63.5,149.7 67.4,156 C69,144.7 61.2,136.4 60.7,136 Z"/>
      <polygon fill="#0BAA8F" points="112.4 126.1 123.7 126.1 117.4 111.3"/>
      <polygon fill="#F9A17A" points="127.2 122.9 135.5 105.6 135.5 70.2 131.5 70.2 119.6 105"/>
      <polygon fill="#0BAA8F" points="151.6 126.1 164 126.1 158.3 109.3"/>
      <path fill="#F74D4D" d="M38.6,119.1 C41.4,127.5 50.4,152.2 62.4,167.8 C63.9,165.7 65.1,163.7 65.9,161.7 C59.5,153.4 47.7,125.7 44.9,119.1 L38.6,119.1 L38.6,119.1 Z"/>
      <polygon fill="#EF7D50" points="140 70.2 140 105.6 148.1 122.8 156.1 102.8 144.9 70.2"/>
      <polygon fill="#F9A17A" points="138.1 50.7 138.3 50.7 143.1 50.7 145.1 50.7 145.1 43 145.1 36.8 145.1 36.2 142.4 36.2 131 36.2 131 40.5 131 50.7 133.4 50.7"/>
      <polygon fill="#FFE576" points="170.6 173.7 173.7 181.2 204.3 181.2 208.2 173.7"/>
      <path fill="#EF7D50" d="M185.2,197.6 L185.2,209.8 L192.7,209.8 L192.7,197.6 C192.7,195.5 191,193.9 189,193.9 C186.9,193.9 185.2,195.5 185.2,197.6 Z"/>
      <path fill="#FF5C5C" d="M213.9,164.8 L208,159.7 L200.5,166.8 C200.1,167.2 199.5,167.4 198.9,167.4 C198.4,167.4 197.8,167.2 197.4,166.8 L189.6,159.6 L182,166.1 C181.2,166.8 180,166.8 179.2,166.2 L170.4,159.4 L164.7,163.8 C166,166.3 167.4,168.2 168.2,169.1 L210.8,169.1 C212,167.7 213,166.2 213.9,164.8 Z"/>
      <path fill="#F9A17A" d="M203.4,209.9 L203.4,185.7 L174.5,185.7 L174.5,209.9 L180.7,209.9 L180.7,197.7 C180.7,193.2 184.4,189.5 188.9,189.5 C193.4,189.5 197.1,193.2 197.1,197.7 L197.1,209.9 L203.4,209.9 Z"/>
      <polygon fill="#49B260" points="131 57.5 131 65.7 133 65.7 143.4 65.7 145.1 65.7 145.1 56.5 145.1 55.2 144.6 55.2 139.8 55.2 136.6 55.2 131.8 55.2 131 55.2"/>
      <path fill="#FFF" d="M217.1,151.4 L217.1,151.4 L208,143.5 L200.5,150.6 C199.6,151.4 198.3,151.4 197.4,150.6 L189.6,143.4 L182,150 C181.2,150.7 180,150.7 179.2,150.1 L170.4,143.3 L162.1,149.7 C161.6,153.3 162.1,156.7 163,159.5 L169.1,154.8 C169.9,154.2 171,154.2 171.8,154.8 L180.5,161.5 L188.2,154.9 C189.1,154.2 190.4,154.2 191.2,155 L198.9,162.1 L206.4,155 C207.2,154.2 208.6,154.2 209.4,154.9 L215.8,160.5 C217,157.3 217.3,154.2 217.1,151.4 Z"/>
      <path fill="#0BAA8F" d="M33.8,119 C33.8,119 33.7,119.1 33.7,119.1 C33,119.9 32.2,120.8 31.4,121.7 L31.4,121.7 C31.5,122 42.2,156.1 53.5,169.1 L57.7,169.1 C44.9,151.8 36,125.8 33.8,119.1 C33.8,119.1 33.8,119 33.8,119 Z"/>
      <path fill="#F74D4D" d="M22.9,131.4 C24.3,136 30.1,153.7 39.1,169.1 L47.7,169.1 C38.5,156.4 30.4,133.4 27.8,125.6 C26.4,127.4 24.7,129.3 22.9,131.4 Z"/>
      <path fill="#F9A17A" d="M53.9,209.8 L53.9,185.6 L25,185.6 L25,209.8 L31.2,209.8 L31.2,197.6 C31.2,193.1 34.9,189.4 39.4,189.4 C43.9,189.4 47.6,193.1 47.6,197.6 L47.6,209.8 L53.9,209.8 Z"/>
      <path fill="#0BAA8F" d="M19.4,135.5 C18.4,136.6 17.6,137.7 16.9,138.8 C18.2,143.1 24.1,161.4 30.4,169 L34,169 C26.6,155.8 21.7,141.9 19.5,135.3 C19.4,135.5 19.4,135.5 19.4,135.5 Z"/>
      <path fill="#FFED92" d="M39.6,96.9 C36.7,96.9 34.2,98.5 34.2,100.4 C34.2,100.7 34.3,101 34.5,101.4 C35.2,102.8 37.3,103.9 39.6,103.9 C42.2,103.9 44.5,102.6 44.9,101 C44.9,100.8 45,100.6 45,100.5 C45,98.6 42.4,96.9 39.6,96.9 Z"/>
      <polygon fill="#FFE576" points="54.8 181.1 58.6 173.6 21 173.6 24.2 181.1"/>
      <path fill="#F74D4D" d="M18.7,169.1 L24.8,169.1 C20.2,161.9 16.1,151 14,144.5 C9.4,156.6 16.4,166.5 18.7,169.1 Z"/>
      <path fill="#0BAA8F" d="M42.7,109.6 L42.4,108 C42.1,108.1 41.8,108.2 41.4,108.2 C40.8,108.3 40.2,108.3 39.6,108.3 C38.9,108.3 38.2,108.2 37.5,108.1 C37.4,108.1 37.3,108 37.2,108 L37.1,108.6 L35.7,114.5 L37.8,114.5 L41.3,114.5 L43.8,114.5 L42.7,109.6 Z"/>
      <rect width="4.5" height="5.3" x="114.6" y="187.1" fill="#2C3134"/>
      <rect width="4.5" height="5.3" x="124.1" y="187.1" fill="#2C3134"/>
      <rect width="4.5" height="5.3" x="133.6" y="187.1" fill="#2C3134"/>
      <rect width="4.5" height="5.3" x="143.1" y="187.1" fill="#2C3134"/>
      <rect width="4.5" height="5.3" x="152.6" y="187.1" fill="#2C3134"/>
      <rect width="4.5" height="5.3" x="162.1" y="187.1" fill="#2C3134"/>
    </g>
    <path d="M103 203C103 203.3 103.1 203.6 103.3 203.9 104 205.3 106.1 206.4 108.4 206.4 111 206.4 113.3 205.1 113.7 203.5 113.7 203.3 113.8 203.1 113.8 203 113.8 201.2 111.3 199.5 108.4 199.5 105.5 199.6 103 201.2 103 203zM110.6 184.4L110.6 195.3C110.8 195.3 111.1 195.4 111.3 195.5 111.3 192.1 111.8 184.1 115.1 180.8 116.2 179.7 117.5 179.1 119 179.1 121.9 179.1 123.8 180.5 124.9 181.9 125.8 181.8 126.7 181.7 127.7 181.7 126.5 179.1 124.1 175.7 119.3 175.7 111.9 175.6 110.7 183.5 110.6 184.4zM128.6 161.7C125.3 161.7 122.7 162.7 120.9 164.6 119 166.6 118.2 169.2 117.8 171.3 118.3 171.3 118.7 171.2 119.2 171.2 119.6 171.2 119.9 171.2 120.2 171.3 121.2 168.2 123.7 164.7 128.6 164.7 130.8 164.7 132.7 165.5 134.2 167 135.8 168.6 136.6 170.8 137 172.7 137.8 172.3 138.7 171.9 139.6 171.7 139.3 169.6 138.6 166.8 136.6 164.7 134.7 162.6 132 161.7 128.6 161.7zM110.2 210.8C109.6 210.9 109 210.9 108.4 210.9 107.7 210.9 107 210.8 106.3 210.7 106.2 210.7 106.1 210.6 106 210.6L105.9 211.2 104.5 217.1 106.6 217.1 110.1 217.1 112.6 217.1 111.6 212.1 111.3 210.5C110.8 210.7 110.5 210.8 110.2 210.8z"/>
    <polygon points="102.4 221.8 102.4 221.8 110.4 230.6 116.2 224.1 114.1 221.8 102.5 221.8"/>
    <path d="M162.8 176.3C162.7 176.3 162.7 176.4 162.6 176.4 159.9 177.6 158.5 179.9 157.8 181.7 158 181.7 158.1 181.7 158.2 181.7 160.5 181.7 162.6 182.1 164.4 182.8 163.7 180.9 163.1 178.8 162.7 176.5 162.8 176.4 162.8 176.3 162.8 176.3zM158.8 169.7C158.2 169.1 157.4 168.8 156.4 168.8 155.2 168.8 154.3 169.2 153.6 169.9 152.4 171.1 152 173.2 151.9 174.5 153 175.5 153.9 176.6 154.6 177.8 155.8 175.8 157.6 173.8 160.1 172.5 159.9 171.5 159.5 170.4 158.8 169.7zM158.2 186.1C154.9 186.1 152.3 187.1 150.5 188.9 147.5 191.9 147.1 196.6 147 198.2L149.3 198.2C149.7 194.8 151.9 189.1 158.2 189.1 158.2 189.1 158.2 189.1 158.2 189.1 164.6 189.1 166.6 194.8 166.9 198.2L169.2 198.2C169.2 196.7 168.9 192.1 166 189 164.3 187.1 161.6 186.1 158.2 186.1z"/>
    <path d="M148.7 164.2C146.6 166.3 145.8 169.2 145.5 171.3 146.3 171.4 147.1 171.7 147.8 171.9 148.2 170.2 148.9 168.3 150.4 166.7 151.9 165.1 154 164.2 156.5 164.2 158.7 164.2 160.6 165 162.1 166.5 162.4 166.8 162.7 167.2 163 167.6 163 167.4 163.1 167.3 163.1 167.1 163.1 167.1 163.1 167.1 163.1 167.1 163.3 166 163.6 164.9 164 163.7 162.2 162 159.7 161.2 156.5 161.2 153.1 161.3 150.5 162.3 148.7 164.2zM92.2 233.4L99.8 242.4 107.3 234 99.4 225.2C97.4 227.6 95 230.3 92.2 233.4zM134 182.7C134.7 183 135.4 183.4 136.1 183.8 136.4 182.9 136.9 182 137.7 181.2 139 179.8 140.9 179.1 143 179.1 145.1 179.1 147 179.8 148.3 181.2 149.1 182 149.6 182.9 149.9 183.8 150.6 183.4 151.3 183 152 182.7 151.1 180.1 148.7 175.6 143.1 175.6 137.7 175.6 135.1 180.1 134 182.7zM158.3 193.6C158.3 193.6 158.3 193.6 158.3 193.6 155 193.6 154.1 196.8 153.9 198.2L162.6 198.2C162.4 196.8 161.6 193.6 158.3 193.6z"/>
    <polygon points="136.7 274.1 139.5 268.7"/>
    <path d="M135.6,271.9 L135.6,271.9 C136.3,270.8 137,269.7 137.6,268.6 C137,269.8 136.3,270.8 135.6,271.9 Z"/>
    <polygon points="143.1 271.5 139.4 278.7 146.6 278.7"/>
    <path d="M88.2 238.2C85.9 240.9 84.3 243.5 83.2 246 84.5 247.4 86.5 249.8 89.8 253.8L96.9 245.9 89.3 237C88.9 237.3 88.6 237.7 88.2 238.2zM130.1 271.8C132.2 269.3 133.6 266.8 134.6 264.5L130 259.3 122 268.6 124.7 271.8 130.1 271.8zM151.8 230C149.9 230 148.4 231.5 148.4 233.4L148.4 254.4 155.1 254.4 155.1 233.4C155.2 231.5 153.7 230 151.8 230zM82.3 262.2L86.8 257.2C84.8 254.8 83 252.6 81.7 250.9 80.8 255.1 81.3 259 82.3 262.2z"/>
    <polygon points="127 255.9 120.1 248.2 112.3 257.2 119 265.1"/>
    <path d="M93.8 271.8L96.3 268.9C94.3 266.5 92 263.6 89.7 260.8L84.2 266.9C85.4 269.2 86.7 270.9 87.5 271.8L93.8 271.8zM106.4 257.1L99.8 249.3 92.7 257.3C94.6 259.6 96.8 262.3 99.3 265.4L106.4 257.1zM169.5 231.5C169.8 230.5 170.7 229.8 171.7 229.8L175 229.8 175 221.7 120.2 221.7 124.4 226.3C124.7 226.2 124.9 226 125.1 226 126 225.5 126.5 225.5 127.7 225.5L128.6 225.5C132.9 225.5 136.5 229 136.5 233.4L136.6 240.6C138.6 243.9 140.6 248.7 141 254.4L144.1 254.4 144.1 233.4C144.1 229.1 147.6 225.5 152 225.5 156.3 225.5 159.9 229 159.9 233.4L159.9 254.4 163.6 254.4 163.6 254.2C163.6 254.1 163.6 253.9 163.6 253.8L163.5 253.8C163.5 253.5 163.4 247.1 167 242.2L169.5 231.5zM113.2 271.8L116 268.5 109.3 260.6 102.1 268.9C102.9 269.8 103.6 270.8 104.4 271.8L113.2 271.8zM129.9 252.4L134.7 246.9C132.7 242 129.8 238.9 129.5 238.6L128.9 238 123 244.8 129.9 252.4zM164.4 258.9L157.5 258.9 146.3 258.9 140.8 258.9C140.6 260.6 140.2 262.4 139.6 264.2L141.5 264.2 141.5 264.3 143.2 264.3C143.3 264.3 143.3 264.2 143.4 264.2L165.7 264.2 164.4 258.9z"/>
    <polygon points="159.8 278.7 156.3 271.5 152.8 278.7"/>
    <polygon points="152.7 268.7 146.8 268.7 149.7 274.8"/>
    <path d="M173.9,155.6 C172,157.9 170.5,160.1 169.4,162.2 L174,158.6 C174.8,158 175.9,158 176.7,158.6 L185.4,165.3 L193.1,158.7 C194,158 195.3,158 196.1,158.8 L203.8,165.9 L211.3,158.8 C212.1,158 213.5,158 214.3,158.7 L220.1,163.8 C218.2,159.2 215.4,156.2 215.1,156 L209.5,149.9 L205.3,153.9 C204.9,154.3 204.3,154.5 203.7,154.5 C203.2,154.5 202.6,154.3 202.2,153.9 L194.4,146.7 L186.8,153.2 C186,153.9 184.8,153.9 184,153.3 L179,149.4 C177.5,151.4 175.8,153.4 173.9,155.6 Z"/>
    <polygon points="165.5 268.7 159.9 268.7 162.9 274.7"/>
    <path d="M143 26.2C144.6 26.2 145.9 25.7 146.7 25 147.3 24.5 147.6 23.9 147.6 23.4 147.6 22 145.7 20.5 143 20.5 140.3 20.5 138.4 22 138.4 23.4 138.4 24 138.7 24.5 139.3 25 140.1 25.6 141.4 26.2 143 26.2zM151.2 51.7C153.6 48.7 154.7 45.7 154.5 42.7 154.1 37.9 150.2 34.7 150.2 34.7L145.8 30.3C144.9 30.5 144 30.7 143.1 30.7 142.1 30.7 141.2 30.5 140.3 30.3L135.4 35.1C132.5 37.8 131.1 40.7 131.1 43.6 131.1 47.4 133.6 50.5 134.7 51.8L151.2 51.8 151.2 51.7zM182.1 146.1L185.5 148.7 193.2 142.1C194.1 141.4 195.4 141.4 196.2 142.2L203.9 149.3 206.6 146.7 199.8 139.2 188.2 139.2C186.5 141.1 184.5 143.4 182.1 146.1zM145 184.3C144.7 184 144.2 183.6 143 183.6 141.8 183.6 141.3 184 141 184.3 140.3 185.1 140 186.4 139.9 187.3 141.7 189.7 142.6 192.4 143 194.7 143.4 192.5 144.3 189.7 146.2 187.3 146.1 186.4 145.8 185.1 145 184.3zM199.4 121C199.4 120.8 199.5 120.6 199.5 120.5 199.5 118.7 197 117 194.1 117 191.2 117 188.7 118.6 188.7 120.5 188.7 120.8 188.8 121.1 189 121.5 189.7 122.9 191.8 124 194.1 124 196.7 123.9 199 122.6 199.4 121zM195.9 128.3C195.3 128.4 194.7 128.4 194.1 128.4 193.4 128.4 192.7 128.3 192 128.2 191.9 128.2 191.8 128.1 191.7 128.1L191.6 128.7 190.2 134.6 192.3 134.6 195.8 134.6 198.3 134.6 197.3 129.6 197 128C196.6 128.1 196.2 128.2 195.9 128.3zM116.5 198.5C116.5 198.4 116.5 198.3 116.5 198.3L116.2 198.3C116.3 198.3 116.4 198.4 116.5 198.5zM118.7 198.3C119.1 194.9 121.3 189.2 127.6 189.2 127.6 189.2 127.6 189.2 127.6 189.2 134 189.2 136 194.9 136.3 198.3L138.7 198.3C138.7 196.8 138.4 192.2 135.5 189.1 133.6 187.2 131 186.2 127.6 186.2 124.3 186.2 121.7 187.2 119.9 189.1 117 192.1 116.5 196.8 116.5 198.3L118.7 198.3zM131.9 233.4C131.9 231.5 130.4 230 128.5 230L127.7 230 131.8 234.5 131.9 233.4zM132.9 175.9C132.8 174.3 132.4 171.5 131 170.1 130.4 169.5 129.6 169.2 128.6 169.2 126.2 169.2 125.1 170.9 124.6 172.3 127.6 173.7 129.7 176.1 131.1 178.5 131.6 177.6 132.2 176.7 132.9 175.9z"/>
    <path d="M127.7 193.6C124.4 193.6 123.5 196.8 123.3 198.2L132 198.2C131.7 196.8 130.9 193.6 127.7 193.6 127.7 193.6 127.7 193.6 127.7 193.6zM118.3 183.9C118 184.2 117.7 184.7 117.5 185.3 118.2 184.7 118.9 184.2 119.7 183.7 119.5 183.7 119.3 183.6 119 183.6 118.9 183.5 118.6 183.5 118.3 183.9zM136.1 252.1L132.9 255.8 136.1 259.3C136.5 256.8 136.5 254.4 136.1 252.1z"/>
    <polygon points="113.4 234 120 241.4 125.9 234.6 119.3 227.4"/>
    <polygon points="102.8 245.9 109.4 253.7 117.1 244.8 110.4 237.4"/>
    <path d="M175 204.5L175 203.9 175 203.4 175 202.7 174.5 202.7 118.2 202.7C118.2 202.8 118.2 202.9 118.2 203 118.2 205.2 117.1 207.2 115.3 208.6L117 217.2 175 217.2 175 204.5zM178.9 243.9C178.9 243.9 179 243.9 178.9 243.9 184.3 243.9 186.6 248 187.4 251.4L190 251.4C189.8 249.3 189 246.1 186.9 243.9 185 242 182.4 241 178.9 241 175.6 241 173 242 171.2 243.8 169 246.1 168.2 249.3 167.9 251.4L170.3 251.4C171.1 248.1 173.5 243.9 178.9 243.9z"/>
    <path d="M190.2 240.8C192.7 243.4 193.8 246.8 194.3 249.4 194.8 246.7 196 243.4 198.6 240.7 201.3 237.9 205 236.5 209.6 236.5 211.6 236.5 213.3 236.8 214.9 237.3L213.7 234.4 210.7 234.4 200 234.4 188 234.4 177.3 234.4 173.5 234.4 172.7 237.6C174.6 236.8 176.7 236.4 179 236.4 183.7 236.4 187.4 237.9 190.2 240.8zM54.5 271.6L66.6 271.6 70.5 255.9 36.7 255.9C42.1 261.7 48.1 266.9 54.5 271.6zM66.1 279L66.1 276.1 61.2 276.1C62.8 277.1 64.4 278.1 66.1 279zM60.1 248.4C60.1 248.4 60.1 248.4 60.1 248.4 57.8 248.4 56.7 249.9 56.1 251.4L63.9 251.4C63.4 249.9 62.4 248.4 60.1 248.4z"/>
    <path d="M67.9,243.8 C66,241.9 63.4,240.9 60,240.9 C56.7,240.9 54.1,241.9 52.3,243.8 C50.1,246.1 49.3,249.3 49,251.4 L51.5,251.4 C52.3,248.1 54.7,243.9 60.1,243.9 C60.1,243.9 60.1,243.9 60.1,243.9 C65.5,243.9 67.8,248 68.6,251.4 L71,251.4 C70.8,249.3 70.1,246.1 67.9,243.8 Z"/>
    <path d="M84.8,235.3 C91.2,227.8 96.1,222.3 99.6,218.3 L101.8,209 C99.8,207.5 98.5,205.5 98.5,203.1 C98.5,199.3 101.8,196.2 106.1,195.4 L106.1,184.1 C106.2,183.6 106.2,183 106.4,182.4 C107,179.5 108.7,175.8 112,173.4 L112,148.5 C112,148.5 112,148.5 112,148.5 C112,148.5 112,148.5 112,148.5 L112,148.5 C112,148.3 112,148 112.1,147.8 L132,89.2 C131.7,88.8 131.5,88.4 131.5,87.9 L131.5,72.9 L131.5,60.1 C128.6,59.9 125.7,59.7 122.7,59.7 C58.2,59.7 5.7,112.2 5.7,176.7 C5.7,196.8 10.8,215.7 19.7,232.2 L19.9,231.5 C20.2,230.5 21.1,229.8 22.1,229.8 L25.4,229.8 L25.4,203.8 L20.7,192.6 C18.4,190 4.3,172.1 20.9,152.6 C27.3,145.1 32.2,139.6 35.7,135.6 L37.9,126.2 C35.9,124.7 34.6,122.7 34.6,120.3 C34.6,116.5 37.8,113.4 42.2,112.6 L42.2,99.6 C42.2,98.4 43.2,97.4 44.4,97.4 C45.6,97.4 46.6,98.4 46.6,99.6 L46.6,112.6 C51,113.4 54.2,116.6 54.2,120.3 C54.2,122.5 53.1,124.5 51.3,125.9 L53.2,135.9 L69,152.9 C69.1,153 86.9,171.9 69.2,192.6 L63.4,203.9 L63.4,229.8 L65.7,229.8 C66.6,229.8 67.5,230.4 67.8,231.2 L71.9,241.6 C75.9,246.6 75.7,253.4 75.6,253.7 L75.6,253.7 C75.6,253.8 75.6,254 75.6,254.1 L70.6,274.1 L70.6,281.3 C76.6,284.3 82.8,286.8 89.3,288.7 L89.3,286.4 L84.6,275.2 C82.3,272.6 68.1,254.7 84.8,235.3 Z"/>
    <polygon points="59.8 201.1 63.6 193.6 26 193.6 29.2 201.1"/>
    <path d="M58.9 229.8L58.9 205.6 30 205.6 30 229.8 36.2 229.8 36.2 217.6C36.2 213.1 39.9 209.4 44.4 209.4 48.9 209.4 52.6 213.1 52.6 217.6L52.6 229.8 58.9 229.8zM93.8 290C97.7 291 101.6 291.8 105.6 292.4 107.9 292.7 110.3 293 112.6 293.2 115.9 293.5 119.3 293.7 122.7 293.7L122.7 288.3 93.8 288.3 93.8 290 93.8 290zM30.6 248.6C31.3 249.5 32.1 250.5 32.8 251.4L33.2 251.4C32.8 250.2 32 249 30.6 248.6zM23.1 237.5C25 236.7 27.1 236.3 29.4 236.3 34.1 236.3 37.9 237.8 40.6 240.7 43.1 243.3 44.2 246.7 44.7 249.3 45.2 246.6 46.4 243.3 49 240.6 51.7 237.8 55.4 236.4 60 236.4 62 236.4 63.7 236.7 65.3 237.2L64.1 234.3 61.1 234.3 50.4 234.3 38.4 234.3 27.7 234.3 23.9 234.3 23.1 237.5z"/>
    <path d="M40.7,217.6 L40.7,229.8 L48.2,229.8 L48.2,217.6 C48.2,215.5 46.5,213.9 44.5,213.9 C42.5,213.9 40.7,215.5 40.7,217.6 Z"/>
    <polygon points="167.8 274.1 167.8 274.6 167.9 274.4 167.9 274.4"/>
    <path d="M170.9 267.3L170.9 267.5 171.8 271.7 191 271.7C197.4 267.1 203.4 261.8 208.8 256L168.3 256 170.9 267.3zM209.5 240.9C206.2 240.9 203.6 241.9 201.8 243.8 199.6 246.1 198.8 249.3 198.5 251.4L201 251.4C201.8 248.1 204.2 243.9 209.6 243.9 209.6 243.9 209.6 243.9 209.6 243.9 212.7 243.9 214.8 245.3 216.1 247.1 216.7 246.3 217.3 245.4 217.9 244.6 217.7 244.4 217.6 244.1 217.4 243.9 215.6 241.9 212.9 240.9 209.5 240.9z"/>
    <polygon points="89.9 276.3 93 283.8 123.6 283.8 127.5 276.3"/>
    <path d="M154.6 64.1L154.6 72.9 154.6 87.9C154.6 88.3 154.5 88.6 154.3 88.9L165.6 122C165.6 122 165.6 122 165.6 122L174.3 147.6C174.3 147.7 174.3 147.8 174.3 148 174.3 148 174.3 148.1 174.3 148.1 174.3 148.1 174.3 148.1 174.3 148.1 178.8 142.9 182.4 138.8 185.2 135.7L187.4 126.4C185.4 124.9 184.1 122.9 184.1 120.5 184.1 116.7 187.4 113.6 191.7 112.8L191.7 99.8C191.7 98.6 192.7 97.6 193.9 97.6 195.1 97.6 196.1 98.6 196.1 99.8L196.1 112.8C200.5 113.6 203.7 116.8 203.7 120.5 203.7 122.7 202.6 124.7 200.8 126.2L202.7 136.1 218.2 153C218.3 153.1 236.1 172 218.4 192.7L212.6 204 212.6 229.9 214.9 229.9C215.8 229.9 216.7 230.5 217 231.3L220.6 240.4C232.5 222.1 239.5 200.2 239.5 176.8 239.8 123.2 203.7 78 154.6 64.1zM209.6 248.4C209.6 248.4 209.6 248.4 209.6 248.4 207.3 248.4 206.2 249.9 205.6 251.4L212.7 251.4 213.4 251.4C213.3 251.2 213.2 251.1 213.2 250.9 212.6 249.6 211.6 248.4 209.6 248.4zM127.2 286.6L127.2 293.6C141.5 293.1 155.2 290 167.8 284.7L167.8 283.2 128.9 283.2 127.2 286.6z"/>
    <polygon points="167.8 278.7 167.8 274.6 166 278.7"/>
    <path d="M179 248.4C176.7 248.4 175.6 249.9 175 251.4L182.8 251.4C182.3 250 181.2 248.4 179 248.4 179 248.4 179 248.4 179 248.4zM172.3 282.7C176.4 280.8 180.5 278.6 184.3 276.2L172.3 276.2 172.3 282.7zM23.7 189.1L29.8 189.1C25.2 181.9 21.1 171 19 164.5 14.4 176.6 21.4 186.5 23.7 189.1zM40.5 251.4C40.3 249.3 39.5 246.1 37.4 243.9 35.5 242 32.9 241 29.5 241 28 241 26.7 241.2 25.5 241.6 26.1 242.5 26.7 243.4 27.3 244.2 28 244 28.7 243.9 29.4 243.9 29.4 243.9 29.4 243.9 29.4 243.9 34.8 243.9 37.1 248 37.9 251.4L40.5 251.4 40.5 251.4zM132.1 150.6L116.5 150.6 116.5 162.7C116.9 162.2 117.2 161.7 117.7 161.3 120.4 158.5 124.1 157.1 128.7 157.1 133.4 157.1 137.2 158.6 139.9 161.5 141.1 162.7 141.9 164.1 142.6 165.5 143.3 164 144.2 162.4 145.5 161 148.2 158.2 151.9 156.8 156.5 156.8 160.2 156.8 163.3 157.8 165.8 159.6 166.9 157.5 168.2 155.5 170 153.3L170 150.6 153.4 150.6 132.1 150.6 132.1 150.6zM222.1 171.4L222.1 171.4 213 163.5 205.5 170.6C204.6 171.4 203.3 171.4 202.4 170.6L194.6 163.4 187 170C186.2 170.7 185 170.7 184.2 170.1L175.4 163.3 167.1 169.7C166.6 173.3 167.1 176.7 168 179.5L174.1 174.8C174.9 174.2 176 174.2 176.8 174.8L185.5 181.5 193.2 174.9C194.1 174.2 195.4 174.2 196.2 175L203.9 182.1 211.4 175C212.2 174.2 213.6 174.2 214.4 174.9L220.8 180.5C222 177.3 222.3 174.2 222.1 171.4zM24.4 155.5C23.4 156.6 22.6 157.7 21.9 158.8 23.2 163.1 29.1 181.4 35.4 189L39 189C31.6 175.8 26.7 161.9 24.5 155.3 24.4 155.5 24.4 155.5 24.4 155.5z"/>
    <polygon points="149.7 146.1 142.8 131.4 135.7 146.1"/>
    <polygon points="132.2 142.9 140.5 125.6 140.5 90.2 136.5 90.2 124.6 125"/>
    <polygon points="143.1 70.7 143.3 70.7 148.1 70.7 150.1 70.7 150.1 63 150.1 56.8 150.1 56.2 147.4 56.2 136 56.2 136 60.5 136 70.7 138.4 70.7"/>
    <path d="M190.2,217.6 L190.2,229.8 L197.7,229.8 L197.7,217.6 C197.7,215.5 196,213.9 194,213.9 C191.9,213.9 190.2,215.5 190.2,217.6 Z"/>
    <path d="M208.4 229.9L208.4 205.7 179.5 205.7 179.5 229.9 185.7 229.9 185.7 217.7C185.7 213.2 189.4 209.5 193.9 209.5 198.4 209.5 202.1 213.2 202.1 217.7L202.1 229.9 208.4 229.9zM218.9 184.8L213 179.7 205.5 186.8C205.1 187.2 204.5 187.4 203.9 187.4 203.4 187.4 202.8 187.2 202.4 186.8L194.6 179.6 187 186.1C186.2 186.8 185 186.8 184.2 186.2L175.4 179.4 169.7 183.8C171 186.3 172.4 188.2 173.2 189.1L215.8 189.1C217 187.7 218 186.2 218.9 184.8z"/>
    <polygon points="175.6 193.7 178.7 201.2 209.3 201.2 213.2 193.7"/>
    <polygon points="136 77.5 136 85.7 138 85.7 148.4 85.7 150.1 85.7 150.1 76.5 150.1 75.2 149.6 75.2 144.8 75.2 141.6 75.2 136.8 75.2 136 75.2"/>
    <path d="M38.8 139C38.8 139 38.7 139.1 38.7 139.1 38 139.9 37.2 140.8 36.4 141.7L36.4 141.7C36.5 142 47.2 176.1 58.5 189.1L62.7 189.1C49.9 171.8 41 145.8 38.8 139.1 38.8 139.1 38.8 139 38.8 139zM44.6 116.9C41.7 116.9 39.2 118.5 39.2 120.4 39.2 120.7 39.3 121 39.5 121.4 40.2 122.8 42.3 123.9 44.6 123.9 47.2 123.9 49.5 122.6 49.9 121 49.9 120.8 50 120.6 50 120.5 50 118.6 47.4 116.9 44.6 116.9zM27.9 151.4C29.3 156 35.1 173.7 44.1 189.1L52.7 189.1C43.5 176.4 35.4 153.4 32.8 145.6 31.4 147.4 29.7 149.3 27.9 151.4zM47.7 129.6L47.4 128C47.1 128.1 46.8 128.2 46.4 128.2 45.8 128.3 45.2 128.3 44.6 128.3 43.9 128.3 43.2 128.2 42.5 128.1 42.4 128.1 42.3 128 42.2 128L42.1 128.6 40.7 134.5 42.8 134.5 46.3 134.5 48.8 134.5 47.7 129.6zM43.6 139.1C46.4 147.5 55.4 172.2 67.4 187.8 68.9 185.7 70.1 183.7 70.9 181.7 64.5 173.4 52.7 145.7 49.9 139.1L43.6 139.1 43.6 139.1z"/>
    <polygon points="145 90.2 145 125.6 153.1 142.8 161.1 122.8 149.9 90.2"/>
    <polygon points="156.6 146.1 169 146.1 163.3 129.3"/>
    <path d="M65.7,156 L58.8,148.4 C63.1,158.1 68.5,169.7 72.4,176 C74,164.7 66.2,156.4 65.7,156 Z"/>
    <polygon points="117.4 146.1 128.7 146.1 122.4 131.3"/>
    <polygon fill="#0BAA8F" fill-rule="nonzero" points="132.6 276 131.2 278.7 134 278.7"/>
    <path fill="#F9A17A" fill-rule="nonzero" d="M139.5,268.7 L137.6,268.7 C137.6,268.7 137.6,268.7 137.6,268.6 L137.6,268.6 C137,269.7 136.4,270.8 135.6,271.9 L136.7,274.1 L139.5,268.7 Z"/>
    <path fill="#2C3134" fill-rule="nonzero" d="M154.6,57.9 L154.6,54.7 C157.9,50.7 159.3,46.5 159,42.3 C158.4,35.6 153.3,31.4 153.2,31.3 L149.9,28.1 C151.3,26.8 152.1,25.2 152.1,23.3 C152.1,19.8 149.2,17 145.3,16.2 L145.3,2.6 C145.3,1.4 144.3,0.4 143.1,0.4 C141.9,0.4 140.9,1.4 140.9,2.6 L140.9,16.2 C136.9,17 134.1,19.8 134.1,23.3 C134.1,25.1 134.9,26.8 136.3,28.1 L132.5,31.8 C128.7,35.4 126.8,39.3 126.8,43.6 C126.9,48.3 129.3,52 131,54 C128.3,53.8 125.7,53.7 123,53.7 C55.1,53.7 -5.68434189e-14,108.8 -5.68434189e-14,176.7 C-5.68434189e-14,200.1 6.5,221.9 17.9,240.5 C18.9,242.1 19.8,243.6 20.9,245.1 C21.5,245.9 22.1,246.8 22.6,247.6 C24.6,250.4 26.7,253.2 28.9,255.8 C33.7,261.5 39,266.8 44.8,271.5 C46.7,273.1 48.6,274.5 50.6,276 C55.6,279.6 60.8,282.9 66.3,285.7 C67.8,286.5 69.3,287.2 70.8,287.9 C76.8,290.7 83,293 89.5,294.9 C91,295.3 92.5,295.7 94,296.1 C96.2,296.6 98.4,297.1 100.7,297.5 C102.2,297.8 103.7,298 105.3,298.3 C107.5,298.6 109.8,298.9 112.1,299.1 C113.6,299.2 115.2,299.4 116.7,299.5 C118.8,299.6 120.9,299.7 123,299.7 C123,299.7 123.1,299.7 123.1,299.7 C124.6,299.7 126,299.6 127.5,299.6 C131,299.5 134.5,299.2 137.9,298.8 C140.1,298.5 142.2,298.2 144.4,297.8 C146.4,297.5 148.4,297.1 150.3,296.6 C152.4,296.1 154.5,295.6 156.6,295 C160.5,293.9 164.3,292.6 168,291.1 C169.5,290.5 171,289.9 172.5,289.2 C176.9,287.3 181.2,285.1 185.3,282.6 C190.9,279.3 196.2,275.6 201.2,271.5 C207,266.7 212.3,261.5 217.1,255.8 C218.3,254.3 219.5,252.8 220.7,251.3 C220.7,251.3 220.8,251.2 220.8,251.2 C222,249.6 223.1,248.1 224.3,246.4 C238,226.6 246.1,202.5 246.1,176.6 C245.8,119.8 207.1,71.9 154.6,57.9 Z M143,20.5 C145.7,20.5 147.6,22 147.6,23.4 C147.6,24 147.3,24.5 146.7,25 C145.9,25.7 144.6,26.2 143,26.2 C141.4,26.2 140.1,25.7 139.3,24.9 C138.7,24.4 138.4,23.8 138.4,23.3 C138.4,22 140.3,20.5 143,20.5 Z M135.4,35.1 L140.3,30.3 C141.2,30.5 142.1,30.7 143.1,30.7 C144.1,30.7 145,30.6 145.8,30.3 L150.2,34.7 C150.2,34.7 154.1,38 154.5,42.7 C154.8,45.6 153.6,48.7 151.2,51.7 L134.8,51.7 C133.7,50.5 131.2,47.3 131.2,43.5 C131.1,40.6 132.5,37.8 135.4,35.1 Z M194.1,123.9 C191.7,123.9 189.7,122.8 189,121.4 C188.9,121.1 188.7,120.8 188.7,120.4 C188.7,118.6 191.2,116.9 194.1,116.9 C197,116.9 199.5,118.5 199.5,120.4 C199.5,120.6 199.5,120.8 199.4,120.9 C199,122.6 196.7,123.9 194.1,123.9 Z M198.2,134.7 L195.7,134.7 L192.2,134.7 L190.1,134.7 L191.5,128.8 L191.6,128.2 C191.7,128.2 191.8,128.3 191.9,128.3 C192.6,128.4 193.3,128.5 194,128.5 C194.6,128.5 195.2,128.4 195.8,128.4 C196.1,128.4 196.5,128.3 196.8,128.2 L197.1,129.8 L198.2,134.7 Z M199.8,139.2 L206.6,146.7 L203.9,149.3 L196.2,142.2 C195.4,141.4 194.1,141.4 193.2,142.1 L185.5,148.7 L182.1,146.1 C184.4,143.4 186.5,141.1 188.2,139.2 L199.8,139.2 Z M184.2,153.3 C185,153.9 186.2,153.9 187,153.2 L194.6,146.7 L202.4,153.9 C202.8,154.3 203.4,154.5 203.9,154.5 C204.5,154.5 205,154.3 205.5,153.9 L209.7,149.9 L215.3,156 C215.6,156.3 218.3,159.2 220.3,163.8 L214.5,158.7 C213.6,157.9 212.3,158 211.5,158.8 L204,165.9 L196.3,158.8 C195.5,158 194.2,158 193.3,158.7 L185.6,165.3 L176.9,158.6 C176.1,158 175,158 174.2,158.6 L169.6,162.2 C170.7,160 172.1,157.8 174.1,155.6 C176,153.4 177.7,151.4 179.4,149.5 L184.2,153.3 Z M143.2,264.2 C143.1,264.2 143.1,264.2 143,264.3 L141.3,264.3 L141.3,264.2 L139.4,264.2 C140,262.4 140.4,260.6 140.6,258.9 L146.1,258.9 L157.3,258.9 L164.2,258.9 L165.4,264.2 L143.2,264.2 Z M165.5,268.7 L162.9,274.7 L160,268.7 L165.5,268.7 Z M159.8,278.7 L152.7,278.7 L156.2,271.5 L159.8,278.7 Z M152.7,268.7 L149.7,274.9 L146.8,268.7 L152.7,268.7 Z M128.9,237.9 L129.5,238.5 C129.8,238.8 132.7,241.9 134.7,246.8 L129.9,252.3 L123,244.6 L128.9,237.9 Z M127.7,230 L128.5,230 C130.4,230 131.9,231.5 131.9,233.4 L131.9,234.5 L127.7,230 Z M136.1,252.1 C136.5,254.3 136.5,256.7 136.1,259.3 L132.9,255.8 L136.1,252.1 Z M120,241.4 L113.4,234 L119.3,227.4 L125.9,234.6 L120,241.4 Z M117.1,244.8 L109.4,253.7 L102.8,245.9 L110.4,237.4 L117.1,244.8 Z M117,217.3 L115.3,208.7 C117.1,207.3 118.2,205.3 118.2,203.1 C118.2,203 118.2,202.9 118.2,202.8 L174.5,202.8 L175,202.8 L175,203.5 L175,204 L175,204.6 L175,217.4 L117,217.4 L117,217.3 Z M119.9,189 C121.7,187.1 124.3,186.1 127.6,186.1 C131,186.1 133.7,187.1 135.5,189 C138.4,192.1 138.7,196.7 138.7,198.2 L136.3,198.2 C136,194.8 133.9,189.1 127.6,189.1 C127.6,189.1 127.6,189.1 127.6,189.1 C121.2,189.1 119,194.8 118.7,198.2 L116.5,198.2 C116.5,198.3 116.5,198.4 116.5,198.4 C116.4,198.3 116.3,198.2 116.2,198.2 L116.5,198.2 C116.6,196.7 117,192 119.9,189 Z M117.5,185.2 C117.7,184.6 118,184.2 118.3,183.8 C118.6,183.5 118.8,183.5 119,183.5 C119.3,183.5 119.5,183.6 119.7,183.6 C118.9,184.1 118.2,184.6 117.5,185.2 Z M124.6,172.3 C125.1,170.8 126.3,169.2 128.6,169.2 C129.6,169.2 130.3,169.5 131,170.1 C132.4,171.5 132.8,174.3 132.9,175.9 C132.2,176.7 131.6,177.6 131.1,178.5 C129.7,176 127.6,173.6 124.6,172.3 Z M131.9,198.3 L123.2,198.3 C123.5,196.8 124.4,193.7 127.6,193.7 C127.6,193.7 127.6,193.7 127.6,193.7 C130.9,193.6 131.7,196.8 131.9,198.3 Z M139.9,187.2 C140,186.4 140.2,185 141,184.2 C141.3,183.9 141.8,183.5 143,183.5 C144.2,183.5 144.7,183.9 145,184.2 C145.8,185 146,186.3 146.1,187.1 C144.3,189.5 143.4,192.2 142.9,194.5 C142.6,192.4 141.7,189.6 139.9,187.2 Z M153.9,198.3 C154.2,196.8 155.1,193.7 158.3,193.7 C158.3,193.7 158.3,193.7 158.3,193.7 C161.5,193.7 162.3,196.9 162.5,198.3 L153.9,198.3 Z M167.1,198.3 C166.8,194.9 164.7,189.2 158.4,189.2 C158.4,189.2 158.4,189.2 158.4,189.2 C152,189.2 149.8,194.9 149.5,198.3 L147,198.3 C147.1,196.8 147.5,192.1 150.5,189 C152.3,187.1 154.9,186.2 158.2,186.2 C161.6,186.2 164.3,187.2 166.2,189.1 C169.1,192.2 169.4,196.8 169.4,198.3 L167.1,198.3 L167.1,198.3 Z M154.7,177.8 C154,176.6 153.1,175.5 152,174.5 C152.1,173.2 152.5,171.1 153.7,169.9 C154.4,169.2 155.3,168.8 156.5,168.8 C157.5,168.8 158.2,169.1 158.9,169.7 C159.6,170.4 160,171.4 160.3,172.5 C157.7,173.8 155.9,175.8 154.7,177.8 Z M158.2,181.6 C158,181.6 157.9,181.6 157.8,181.6 C158.5,179.8 159.9,177.6 162.6,176.3 C162.7,176.3 162.7,176.2 162.8,176.2 C162.8,176.2 162.8,176.3 162.8,176.3 C163.1,178.6 163.7,180.7 164.5,182.6 C162.6,182 160.5,181.6 158.2,181.6 Z M163,167.2 C163,167.2 163,167.2 163,167.2 C163,167.4 162.9,167.6 162.9,167.7 C162.6,167.3 162.3,166.9 162,166.6 C160.5,165.1 158.6,164.3 156.4,164.3 C154,164.3 151.9,165.1 150.3,166.8 C148.8,168.3 148.1,170.3 147.7,172 C147,171.7 146.2,171.5 145.4,171.4 C145.7,169.3 146.5,166.4 148.6,164.3 C150.4,162.4 153,161.4 156.3,161.4 C159.5,161.4 162,162.3 163.8,163.9 C163.5,165 163.2,166.1 163,167.2 Z M152,182.7 C151.2,183 150.5,183.4 149.9,183.8 C149.5,182.9 149,182 148.3,181.2 C147,179.8 145.1,179.1 143,179.1 C140.9,179.1 139,179.8 137.7,181.2 C136.9,182 136.4,182.9 136.1,183.8 C135.4,183.4 134.8,183 134,182.7 C135.1,180 137.7,175.6 143.2,175.6 C148.7,175.6 151.1,180.1 152,182.7 Z M137,172.6 C136.6,170.7 135.8,168.5 134.2,166.9 C132.7,165.4 130.8,164.6 128.6,164.6 C123.7,164.6 121.2,168 120.2,171.2 C119.9,171.2 119.5,171.1 119.2,171.1 C118.7,171.1 118.2,171.1 117.8,171.2 C118.2,169.1 119,166.5 120.9,164.5 C122.7,162.6 125.3,161.6 128.6,161.6 C132,161.6 134.7,162.6 136.5,164.5 C138.5,166.6 139.3,169.5 139.5,171.5 C138.7,171.9 137.8,172.2 137,172.6 Z M119.2,175.6 C124,175.6 126.5,179 127.6,181.6 C126.6,181.6 125.7,181.7 124.8,181.8 C123.7,180.4 121.8,179 118.9,179 C117.5,179 116.1,179.6 115,180.7 C111.7,184.1 111.3,192.1 111.2,195.4 C111,195.3 110.7,195.3 110.5,195.2 L110.5,184.3 C110.7,183.5 111.9,175.6 119.2,175.6 Z M113.8,203 C113.8,203.2 113.8,203.4 113.7,203.5 C113.3,205.1 111,206.4 108.4,206.4 C106,206.4 104,205.3 103.3,203.9 C103.2,203.6 103,203.3 103,203 C103,201.2 105.5,199.5 108.4,199.5 C111.2,199.6 113.8,201.2 113.8,203 Z M112.5,217.3 L110,217.3 L106.5,217.3 L104.4,217.3 L105.8,211.4 L105.9,210.8 C106,210.8 106.1,210.9 106.2,210.9 C106.9,211 107.6,211.1 108.3,211.1 C108.9,211.1 109.5,211 110.1,211 C110.4,210.9 110.8,210.9 111.1,210.8 L111.4,212.4 L112.5,217.3 Z M114.1,221.8 L116.2,224.1 L110.4,230.7 L102.5,221.9 L102.5,221.9 L102.6,221.9 L114.1,221.9 L114.1,221.8 Z M107.4,234 L99.9,242.4 L92.3,233.4 C95,230.2 97.4,227.5 99.5,225.1 L107.4,234 Z M96.9,245.8 L89.8,253.7 C86.5,249.7 84.5,247.3 83.2,245.9 C84.3,243.4 85.9,240.8 88.2,238.1 C88.6,237.7 88.9,237.3 89.3,236.8 L96.9,245.8 Z M86.8,257.2 L82.3,262.2 C81.3,259 80.8,255.1 81.6,250.9 C83,252.6 84.8,254.8 86.8,257.2 Z M89.7,260.7 C92,263.5 94.3,266.4 96.3,268.8 L93.8,271.7 L87.5,271.7 C86.8,270.8 85.5,269.1 84.2,266.8 L89.7,260.7 Z M92.7,257.3 L99.8,249.3 L106.4,257.1 L99.3,265.3 C96.7,262.3 94.6,259.6 92.7,257.3 Z M109.4,260.6 L116.1,268.5 L113.3,271.8 L104.6,271.8 C103.8,270.8 103,269.9 102.3,268.9 L109.4,260.6 Z M112.3,257.2 L120,248.2 L126.9,255.9 L119,265.1 L112.3,257.2 Z M130,259.3 L134.6,264.5 C133.6,266.9 132.1,269.3 130.1,271.8 L124.7,271.8 L122,268.6 L130,259.3 Z M132.6,276 L134,278.7 L131.2,278.7 L132.6,276 Z M135.6,271.9 C136.3,270.8 137,269.7 137.6,268.6 L137.6,268.6 C137.6,268.6 137.6,268.6 137.6,268.7 L139.5,268.7 L136.7,274.1 L135.6,271.9 Z M143.1,271.5 L146.5,278.7 L139.3,278.7 L143.1,271.5 Z M148.5,254.4 L148.5,233.4 C148.5,231.5 150,230 151.9,230 C153.8,230 155.3,231.5 155.3,233.4 L155.3,254.4 L148.5,254.4 Z M163.3,253.7 L163.3,253.7 C163.4,253.8 163.3,254 163.4,254.1 L163.4,254.3 L159.7,254.3 L159.7,233.3 C159.7,229 156.2,225.4 151.8,225.4 C147.5,225.4 143.9,228.9 143.9,233.3 L143.9,254.3 L140.8,254.3 C140.5,248.7 138.4,243.9 136.4,240.5 L136.3,233.3 C136.3,229 132.8,225.4 128.4,225.4 L127.5,225.4 C126.3,225.4 125.9,225.4 124.9,225.9 C124.7,226 124.5,226.1 124.2,226.2 L120,221.6 L175,221.6 L175,229.7 L171.7,229.7 C170.7,229.7 169.8,230.4 169.5,231.4 L166.8,242 C163.1,247.1 163.3,253.4 163.3,253.7 Z M173.5,234.4 L177.3,234.4 L188,234.4 L200,234.4 L210.7,234.4 L213.7,234.4 L214.9,237.3 C213.3,236.8 211.5,236.5 209.6,236.5 C205.1,236.5 201.4,237.9 198.6,240.7 C196,243.4 194.9,246.8 194.3,249.4 C193.8,246.8 192.7,243.5 190.2,240.8 C187.5,237.9 183.7,236.4 179,236.4 C176.7,236.4 174.5,236.8 172.7,237.6 L173.5,234.4 Z M194,209.4 C189.5,209.4 185.8,213.1 185.8,217.6 L185.8,229.8 L179.6,229.8 L179.6,205.6 L208.5,205.6 L208.5,229.8 L202.3,229.8 L202.3,217.6 C202.2,213.1 198.5,209.4 194,209.4 Z M197.7,217.6 L197.7,229.8 L190.2,229.8 L190.2,217.6 C190.2,215.5 191.9,213.9 193.9,213.9 C196,213.9 197.7,215.5 197.7,217.6 Z M209.3,201.2 L178.7,201.2 L175.5,193.7 L213.1,193.7 L209.3,201.2 Z M173.2,189.2 C172.4,188.3 171,186.4 169.7,183.9 L175.4,179.5 L184.2,186.3 C185,186.9 186.2,186.9 187,186.2 L194.6,179.7 L202.4,186.9 C202.8,187.3 203.4,187.5 203.9,187.5 C204.5,187.5 205,187.3 205.5,186.9 L213,179.8 L218.9,184.9 C218.1,186.4 217,187.8 215.8,189.3 L173.2,189.3 L173.2,189.2 Z M214.4,174.9 C213.5,174.1 212.2,174.2 211.4,175 L203.9,182.1 L196.2,175 C195.4,174.2 194.1,174.2 193.2,174.9 L185.5,181.5 L176.8,174.8 C176,174.2 174.9,174.2 174.1,174.8 L168,179.5 C167.1,176.6 166.7,173.3 167.1,169.7 L175.4,163.3 L184.2,170.1 C185,170.7 186.2,170.7 187,170 L194.6,163.5 L202.4,170.7 C203.3,171.5 204.6,171.5 205.5,170.7 L213,163.6 L222,171.6 L222,171.6 C222.2,174.4 221.9,177.5 220.8,180.7 L214.4,174.9 Z M169.9,153.3 C168.2,155.4 166.8,157.5 165.7,159.6 C163.2,157.8 160.1,156.8 156.4,156.8 C151.9,156.8 148.2,158.2 145.4,161 C144.1,162.4 143.1,163.9 142.5,165.5 C141.9,164.1 141,162.7 139.8,161.5 C137.1,158.6 133.3,157.1 128.6,157.1 C124.1,157.1 120.4,158.5 117.6,161.3 C117.2,161.7 116.8,162.2 116.4,162.7 L116.4,150.6 L132,150.6 L153.3,150.6 L169.9,150.6 L169.9,153.3 L169.9,153.3 Z M136.8,75.2 L141.6,75.2 L144.9,75.2 L149.7,75.2 L150.2,75.2 L150.2,76.6 L150.2,85.7 L148.6,85.7 L138,85.7 L136,85.7 L136,77.5 L136,75.2 L136.8,75.2 Z M136,70.7 L136,60.5 L136,56.2 L147.3,56.2 L150,56.2 L150,56.8 L150,63 L150,70.7 L148,70.7 L143.2,70.7 L143,70.7 L138.2,70.7 L136,70.7 Z M136.5,90.2 L140.6,90.2 L140.6,125.6 L132.3,142.9 L124.7,124.9 L136.5,90.2 Z M142.8,131.4 L149.8,146.2 L135.8,146.2 L142.8,131.4 Z M128.7,146.1 L117.4,146.1 L122.5,131.3 L128.7,146.1 Z M156.6,146.1 L163.3,129.3 L169,146.1 L156.6,146.1 Z M153.1,142.8 L145,125.7 L145,90.2 L149.9,90.2 L161,122.8 L153.1,142.8 Z M70.8,181.7 C70,183.7 68.8,185.7 67.3,187.8 C55.3,172.3 46.4,147.5 43.5,139.1 L49.8,139.1 C52.7,145.7 64.5,173.4 70.8,181.7 Z M58.8,148.4 L65.7,156 C66.2,156.5 74,164.8 72.4,176.1 C68.5,169.7 63.1,158.1 58.8,148.4 Z M42.7,134.6 L40.6,134.6 L42,128.7 L42.1,128.1 C42.2,128.1 42.3,128.2 42.4,128.2 C43.1,128.3 43.8,128.4 44.5,128.4 C45.1,128.4 45.7,128.3 46.3,128.3 C46.6,128.2 47,128.2 47.3,128.1 L47.6,129.7 L48.6,134.7 L46.1,134.7 L42.7,134.7 L42.7,134.6 Z M49.9,120.9 C49.5,122.5 47.2,123.8 44.6,123.8 C42.2,123.8 40.1,122.7 39.5,121.3 C39.4,121 39.2,120.7 39.2,120.3 C39.2,118.4 41.7,116.8 44.6,116.8 C47.5,116.8 50,118.4 50,120.3 C50,120.6 49.9,120.8 49.9,120.9 Z M62.7,189.1 L58.5,189.1 C47.2,176.1 36.5,142 36.4,141.7 L36.4,141.7 C37.2,140.8 38,139.9 38.7,139.1 C38.7,139.1 38.8,139 38.8,139 C38.8,139 38.8,139.1 38.8,139.1 C41,145.8 49.9,171.8 62.7,189.1 Z M52.8,189.1 L44.2,189.1 C35.2,173.7 29.4,156 28,151.4 C29.8,149.3 31.5,147.4 33,145.6 C35.5,153.4 43.5,176.4 52.8,189.1 Z M39,189.1 L35.3,189.1 C29,181.5 23.2,163.2 21.8,158.9 C22.5,157.8 23.4,156.7 24.3,155.6 C24.3,155.6 24.4,155.5 24.4,155.5 C26.6,162.1 31.6,176 39,189.1 Z M29.7,189.1 L23.6,189.1 C21.4,186.4 14.3,176.6 18.8,164.5 C21.1,171 25.1,182 29.7,189.1 Z M63.6,193.6 L59.7,201.1 L29.2,201.1 L26,193.6 L63.6,193.6 Z M44.4,209.3 C39.9,209.3 36.2,213 36.2,217.5 L36.2,229.7 L30,229.7 L30,205.5 L58.9,205.5 L58.9,229.7 L52.7,229.7 L52.7,217.5 C52.7,213 49,209.3 44.4,209.3 Z M48.2,217.6 L48.2,229.8 L40.7,229.8 L40.7,217.6 C40.7,215.5 42.4,213.9 44.4,213.9 C46.4,213.9 48.2,215.5 48.2,217.6 Z M27.7,234.3 L38.4,234.3 L50.4,234.3 L61.1,234.3 L64.1,234.3 L65.3,237.2 C63.7,236.7 61.9,236.4 60,236.4 C55.5,236.4 51.8,237.8 49,240.6 C46.4,243.3 45.3,246.7 44.7,249.3 C44.2,246.7 43.1,243.4 40.6,240.7 C37.9,237.8 34.1,236.3 29.4,236.3 C27.1,236.3 24.9,236.7 23.1,237.5 L23.9,234.3 L27.7,234.3 L27.7,234.3 Z M32.8,251.4 C32,250.5 31.3,249.6 30.6,248.6 C32.1,249 32.8,250.2 33.3,251.4 L32.8,251.4 Z M29.4,243.9 C29.4,243.9 29.4,243.9 29.4,243.9 C28.6,243.9 27.9,244 27.2,244.2 C26.6,243.3 26,242.5 25.4,241.6 C26.6,241.2 27.9,241 29.4,241 C32.8,241 35.5,242 37.3,243.9 C39.5,246.2 40.2,249.4 40.4,251.4 L37.8,251.4 C37.2,248 34.9,243.9 29.4,243.9 Z M66.1,279 C64.4,278.1 62.8,277.1 61.2,276.1 L66.1,276.1 L66.1,279 Z M66.6,271.6 L54.5,271.6 C48.1,267 42.1,261.7 36.7,255.9 L70.5,255.9 L66.6,271.6 Z M56.1,251.4 C56.7,250 57.8,248.4 60.1,248.4 C60.1,248.4 60.1,248.4 60.1,248.4 C62.3,248.4 63.4,250 63.9,251.4 L56.1,251.4 Z M68.6,251.4 C67.9,248 65.6,243.9 60.1,243.9 C60.1,243.9 60.1,243.9 60.1,243.9 C54.7,243.9 52.3,248.1 51.5,251.4 L49,251.4 C49.3,249.3 50.1,246.1 52.3,243.8 C54.1,241.9 56.7,240.9 60,240.9 C63.4,240.9 66.1,241.9 67.9,243.8 C70.1,246.1 70.8,249.3 71,251.3 L68.6,251.3 L68.6,251.4 Z M89.3,288.8 C82.8,286.9 76.6,284.4 70.6,281.4 L70.6,274.2 L75.6,254.2 C75.6,254.1 75.6,253.9 75.6,253.8 L75.6,253.8 C75.6,253.5 75.9,246.7 71.9,241.7 L67.8,231.3 C67.5,230.4 66.6,229.9 65.7,229.9 L63.4,229.9 L63.4,204 L69.2,192.7 C86.9,172 69.1,153.1 69,153 L53.5,136 L51.6,126 C53.4,124.6 54.5,122.6 54.5,120.4 C54.5,116.6 51.2,113.5 46.9,112.7 L46.9,99.7 C46.9,98.5 45.9,97.5 44.7,97.5 C43.5,97.5 42.5,98.5 42.5,99.7 L42.5,112.7 C38.1,113.5 34.9,116.6 34.9,120.4 C34.9,122.7 36.2,124.8 38.2,126.3 L36,135.7 C32.5,139.7 27.6,145.2 21.2,152.7 C4.6,172.1 18.7,190 21,192.7 L25.7,203.9 L25.7,229.9 L22.4,229.9 C21.4,229.9 20.5,230.6 20.2,231.6 L20,232.3 C11.1,215.8 6,196.9 6,176.8 C6,112.3 58.5,59.8 123,59.8 C125.9,59.8 128.9,59.9 131.8,60.2 L131.8,73 L131.8,88 C131.8,88.5 132,89 132.3,89.3 L112.4,147.7 C112.3,147.9 112.3,148.2 112.3,148.4 L112.3,148.4 C112.3,148.4 112.3,148.4 112.3,148.4 C112.3,148.4 112.3,148.4 112.3,148.4 L112.3,173.3 C109.1,175.6 107.4,179.3 106.7,182.3 C106.6,182.9 106.5,183.5 106.4,184 L106.4,195.3 C102,196.1 98.8,199.3 98.8,203 C98.8,205.3 100.1,207.4 102.1,208.9 L99.9,218.2 C96.4,222.2 91.5,227.7 85.1,235.2 C68.5,254.6 82.6,272.5 84.9,275.2 L89.6,286.4 L89.6,288.8 L89.3,288.8 Z M122.7,293.7 C119.3,293.7 115.9,293.5 112.6,293.2 C110.2,293 107.9,292.7 105.6,292.4 C101.6,291.8 97.6,291 93.8,290 L93.8,288.2 L122.7,288.2 L122.7,293.7 Z M123.6,283.8 L93,283.8 L89.8,276.3 L127.4,276.3 L123.6,283.8 Z M167.8,284.7 C155.2,290 141.5,293.1 127.2,293.6 L127.2,286.6 L128.9,283.3 L167.8,283.3 L167.8,284.7 Z M167.8,274.6 L167.8,278.7 L166,278.7 L167.8,274.6 L167.8,274.2 L167.9,274.4 L167.9,274.4 L167.8,274.6 Z M171.2,243.8 C173,241.9 175.6,241 178.9,241 C182.3,241 185,242 186.9,243.9 C189.1,246.2 189.8,249.4 190,251.4 L187.4,251.4 C186.7,248 184.4,243.9 178.9,243.9 C178.9,243.9 178.9,243.9 178.9,243.9 C173.5,243.9 171.1,248.1 170.3,251.4 L167.9,251.4 C168.2,249.3 169,246.1 171.2,243.8 Z M182.8,251.4 L175,251.4 C175.6,250 176.7,248.4 179,248.4 C179,248.4 179,248.4 179,248.4 C181.2,248.4 182.3,250 182.8,251.4 Z M172.3,282.7 L172.3,276.2 L184.3,276.2 C180.5,278.5 176.4,280.7 172.3,282.7 Z M191,271.6 L171.8,271.6 L170.9,267.4 L170.9,267.2 L168.4,255.8 L208.9,255.8 C203.4,261.7 197.5,267 191,271.6 Z M212.7,251.4 L205.6,251.4 C206.2,250 207.3,248.4 209.6,248.4 C209.6,248.4 209.6,248.4 209.6,248.4 C211.6,248.4 212.6,249.6 213.2,250.9 C213.3,251.1 213.4,251.2 213.4,251.4 L212.7,251.4 Z M216.2,247.1 C214.8,245.3 212.8,243.9 209.7,243.9 C209.7,243.9 209.7,243.9 209.7,243.9 C204.3,243.9 201.9,248.1 201.1,251.4 L198.6,251.4 C198.9,249.3 199.7,246.1 201.9,243.8 C203.7,241.9 206.3,240.9 209.6,240.9 C213,240.9 215.7,241.9 217.5,243.8 C217.7,244 217.9,244.3 218,244.5 C217.4,245.4 216.8,246.3 216.2,247.1 Z M220.9,240.3 L217.3,231.2 C217,230.3 216.1,229.8 215.2,229.8 L212.9,229.8 L212.9,204 L218.7,192.7 C236.4,172 218.6,153.1 218.5,153 L203,136 L201.1,126.1 C202.9,124.7 204,122.7 204,120.4 C204,116.6 200.7,113.5 196.4,112.7 L196.4,99.7 C196.4,98.5 195.4,97.5 194.2,97.5 C193,97.5 192,98.5 192,99.7 L192,112.7 C187.6,113.5 184.4,116.7 184.4,120.4 C184.4,122.7 185.7,124.8 187.7,126.3 L185.5,135.6 C182.7,138.7 179.1,142.8 174.6,148 C174.6,148 174.6,148 174.6,148 C174.6,148 174.6,147.9 174.6,147.9 C174.6,147.8 174.6,147.7 174.6,147.5 L165.9,121.9 C165.9,121.9 165.9,121.9 165.9,121.9 L154.6,88.8 C154.8,88.5 154.9,88.2 154.9,87.8 L154.9,72.8 L154.9,64 C204,77.9 240.1,123.1 240.1,176.6 C239.8,200.2 232.8,222 220.9,240.3 Z"/>
  </g>
</svg>
